<svg width="24" height="28" viewBox="0 0 24 28" fill="none" xmlns="http://www.w3.org/2000/svg">
    <path d="M8.23905 23.4338H15.7556V23.849C15.7556 25.925 14.0732 27.6073 11.9973 27.6073C9.92137 27.6073 8.23905 25.925 8.23905 23.849V23.4338ZM23.4985 19.4491L21.4388 17.3894C20.9319 16.8825 20.6515 16.1977 20.6515 15.4806V11.7547C20.6515 7.67827 17.7506 4.17884 13.7389 3.42395V1.74163C13.7389 0.781847 12.9571 0 11.9973 0C11.0375 0 10.2557 0.781847 10.2557 1.74163V3.42395C6.24938 4.17884 3.34307 7.67827 3.34307 11.7547V15.4806C3.34307 16.1977 3.05729 16.8825 2.55583 17.3894L0.496068 19.4491C0.177938 19.7672 0 20.204 0 20.6515C0 21.5898 0.760279 22.3554 1.70389 22.3554H22.2961C23.2343 22.3554 24 21.5951 24 20.6515C23.9946 20.1986 23.8167 19.7672 23.4985 19.4491Z" fill="#DC9291"/>
</svg>
