<svg width="24" height="24" viewBox="0 0 24 24" fill="none" xmlns="http://www.w3.org/2000/svg">
    <path d="M0 7.2V21C0 21.6365 0.252856 22.247 0.702944 22.6971C1.15303 23.1471 1.76348 23.4 2.4 23.4H21.6C22.2365 23.4 22.847 23.1471 23.2971 22.6971C23.7471 22.247 24 21.6365 24 21V7.2H0ZM7.2 19.2C7.2 19.5183 7.07357 19.8235 6.84853 20.0485C6.62348 20.2736 6.31826 20.4 6 20.4H4.8C4.48174 20.4 4.17652 20.2736 3.95147 20.0485C3.72643 19.8235 3.6 19.5183 3.6 19.2V18C3.6 17.6817 3.72643 17.3765 3.95147 17.1515C4.17652 16.9264 4.48174 16.8 4.8 16.8H6C6.31826 16.8 6.62348 16.9264 6.84853 17.1515C7.07357 17.3765 7.2 17.6817 7.2 18V19.2ZM7.2 12.6C7.2 12.9183 7.07357 13.2235 6.84853 13.4485C6.62348 13.6736 6.31826 13.8 6 13.8H4.8C4.48174 13.8 4.17652 13.6736 3.95147 13.4485C3.72643 13.2235 3.6 12.9183 3.6 12.6V11.4C3.6 11.0817 3.72643 10.7765 3.95147 10.5515C4.17652 10.3264 4.48174 10.2 4.8 10.2H6C6.31826 10.2 6.62348 10.3264 6.84853 10.5515C7.07357 10.7765 7.2 11.0817 7.2 11.4V12.6ZM13.8 19.2C13.8 19.5183 13.6736 19.8235 13.4485 20.0485C13.2235 20.2736 12.9183 20.4 12.6 20.4H11.4C11.0817 20.4 10.7765 20.2736 10.5515 20.0485C10.3264 19.8235 10.2 19.5183 10.2 19.2V18C10.2 17.6817 10.3264 17.3765 10.5515 17.1515C10.7765 16.9264 11.0817 16.8 11.4 16.8H12.6C12.9183 16.8 13.2235 16.9264 13.4485 17.1515C13.6736 17.3765 13.8 17.6817 13.8 18V19.2ZM13.8 12.6C13.8 12.9183 13.6736 13.2235 13.4485 13.4485C13.2235 13.6736 12.9183 13.8 12.6 13.8H11.4C11.0817 13.8 10.7765 13.6736 10.5515 13.4485C10.3264 13.2235 10.2 12.9183 10.2 12.6V11.4C10.2 11.0817 10.3264 10.7765 10.5515 10.5515C10.7765 10.3264 11.0817 10.2 11.4 10.2H12.6C12.9183 10.2 13.2235 10.3264 13.4485 10.5515C13.6736 10.7765 13.8 11.0817 13.8 11.4V12.6ZM20.4 19.2C20.4 19.5183 20.2736 19.8235 20.0485 20.0485C19.8235 20.2736 19.5183 20.4 19.2 20.4H18C17.6817 20.4 17.3765 20.2736 17.1515 20.0485C16.9264 19.8235 16.8 19.5183 16.8 19.2V18C16.8 17.6817 16.9264 17.3765 17.1515 17.1515C17.3765 16.9264 17.6817 16.8 18 16.8H19.2C19.5183 16.8 19.8235 16.9264 20.0485 17.1515C20.2736 17.3765 20.4 17.6817 20.4 18V19.2ZM20.4 12.6C20.4 12.9183 20.2736 13.2235 20.0485 13.4485C19.8235 13.6736 19.5183 13.8 19.2 13.8H18C17.6817 13.8 17.3765 13.6736 17.1515 13.4485C16.9264 13.2235 16.8 12.9183 16.8 12.6V11.4C16.8 11.0817 16.9264 10.7765 17.1515 10.5515C17.3765 10.3264 17.6817 10.2 18 10.2H19.2C19.5183 10.2 19.8235 10.3264 20.0485 10.5515C20.2736 10.7765 20.4 11.0817 20.4 11.4V12.6ZM24 6V2.4C24 1.76348 23.7471 1.15303 23.2971 0.702944C22.847 0.252856 22.2365 0 21.6 0H21V0.6C21 1.9236 19.9236 3 18.6 3C17.2764 3 16.2 1.9236 16.2 0.6V0H7.8V0.6C7.8 1.9236 6.7236 3 5.4 3C4.0764 3 3 1.9236 3 0.6V0H2.4C1.76348 0 1.15303 0.252856 0.702944 0.702944C0.252856 1.15303 0 1.76348 0 2.4V6H24Z" fill="#979797"/>
</svg>
