<svg width="24" height="17" viewBox="0 0 24 17" fill="none" xmlns="http://www.w3.org/2000/svg">
    <path d="M23.7886 1.20567L16.5099 8.4375L23.7886 15.6693C23.9202 15.3943 24 15.0903 24 14.7656V2.10938C24 1.78467 23.9202 1.48069 23.7886 1.20567ZM21.8906 0H2.10938C1.78467 0 1.48069 0.0798282 1.20567 0.211406L10.5086 9.46748C11.3312 10.29 12.6688 10.29 13.4914 9.46748L22.7943 0.211406C22.5193 0.0798282 22.2153 0 21.8906 0ZM0.211406 1.20567C0.0798281 1.48069 0 1.78467 0 2.10938V14.7656C0 15.0903 0.0798281 15.3944 0.211406 15.6693L7.49011 8.4375L0.211406 1.20567Z" fill="#DC9291"/>
    <path d="M15.5155 9.43176L14.4855 10.4617C13.115 11.8323 10.8848 11.8323 9.51421 10.4617L8.48427 9.43176L1.20557 16.6636C1.48058 16.7952 1.78457 16.875 2.10927 16.875H21.8905C22.2152 16.875 22.5192 16.7952 22.7942 16.6636L15.5155 9.43176Z" fill="#DC9291"/>
</svg>
