<svg height="100" viewBox="0 0 100 100" width="100" xmlns="http://www.w3.org/2000/svg" xmlns:sketch="http://www.bohemiancoding.com/sketch/ns"><g id="Page-1" fill="none" fill-rule="evenodd"><g id="kden-document-excel" fill="#404040"><path id="www.kden.ru" d="m58.9926339 32c-1.6536997 0-2.9926339-1.3398479-2.9926339-2.9926339v-25.0073661h-36.3343195c-2.0244994 0-3.6656805 1.63894638-3.6656805 3.66768662v82.66462678c0 2.0256074 1.6472148 3.6676866 3.6800858 3.6676866h60.6398284c2.0324553 0 3.6800858-1.6526662 3.6800858-3.6776669v-58.3223331zm-2.7073962 42h7.7147623l-10.1429674-14.1981552 8.4300475-11.8018448h-7.7147623l-4.5726664 6.4027139-4.5726664-6.4027139h-7.7175509l8.4328361 11.8018448-10.1422702 14.1981552h7.3710629.3409108 9.0519135l-2.7279835-4.197342h-3.3240545l3.2878022-4.6023429zm27.7147623-46h-21.9950534c-1.1073014 0-2.0049466-.8970262-2.0049466-2.0049466v-21.9950534z"/></g></g></svg>