<svg width="20" height="20" viewBox="0 0 20 20" fill="none" xmlns="http://www.w3.org/2000/svg">
    <path d="M18.9127 3.28333L15.4522 0.733333C14.8249 0.258333 13.999 0 13.1312 0H3.41871C1.53685 0 0 1.225 0 2.725V17.275C0 18.775 1.53685 20 3.41871 20H16.5813C18.4631 20 20 18.775 20 17.275V5.28333C20 4.525 19.6027 3.8 18.9127 3.28333ZM6.58651 6.85C9.41244 4.59667 9.31521 4.66417 9.41976 4.60833C9.58959 4.51675 9.78973 4.46745 9.99477 4.46667H10.0052C10.2771 4.46667 10.5384 4.55833 10.7371 4.70833L13.4135 6.85C13.609 7.00581 13.7188 7.21714 13.7188 7.4375C13.7188 7.65786 13.609 7.86919 13.4135 8.025C13.218 8.18081 12.9529 8.26835 12.6764 8.26835C12.4 8.26835 12.1348 8.18081 11.9394 8.025L11.0507 7.31667V10.2583C11.0507 10.725 10.5802 11.0917 10.0052 11.0917C9.41976 11.0917 8.95975 10.725 8.95975 10.2583V7.31667L8.06064 8.03333C7.86435 8.18794 7.59953 8.27464 7.32357 8.27464C7.04762 8.27464 6.7828 8.18794 6.58651 8.03333C6.17878 7.70833 6.17878 7.175 6.58651 6.85ZM14.0512 15.5333H5.94877C5.37376 15.5333 4.90329 15.1583 4.90329 14.7C4.90329 14.2417 5.37376 13.8667 5.94877 13.8667H14.0512C14.6262 13.8667 15.0967 14.2417 15.0967 14.7C15.0967 15.1583 14.6262 15.5333 14.0512 15.5333Z" fill="#EFB700"/>
</svg>
