<svg width="20" height="19" viewBox="0 0 20 19" fill="none" xmlns="http://www.w3.org/2000/svg">
    <path d="M5.207 14.5846C4.55444 14.5834 3.91868 14.3777 3.38915 13.9963C2.85963 13.6149 2.463 13.0772 2.25507 12.4586L2.2259 12.3628C2.13255 12.0706 2.08394 11.766 2.08172 11.4594V5.77718L0.0598726 12.5261C-0.0638706 13.0063 0.00581317 13.516 0.253935 13.9453C0.502057 14.3747 0.908794 14.6896 1.38666 14.8222L14.2737 18.2733C14.4345 18.315 14.5953 18.335 14.7537 18.335C15.5838 18.335 16.3422 17.7841 16.5547 16.9723L17.3056 14.5846H5.207ZM7.49888 5.83385C8.41813 5.83385 9.16569 5.08628 9.16569 4.16703C9.16569 3.24778 8.41813 2.50021 7.49888 2.50021C6.57963 2.50021 5.83206 3.24778 5.83206 4.16703C5.83206 5.08628 6.57963 5.83385 7.49888 5.83385Z" fill="#2237C2"/>
    <path d="M17.9167 0H5.41555C4.86317 0.000661667 4.3336 0.220387 3.94301 0.61098C3.55242 1.00157 3.33269 1.53114 3.33203 2.08352V11.251C3.33203 12.3994 4.26712 13.3345 5.41555 13.3345H17.9167C19.0651 13.3345 20.0002 12.3994 20.0002 11.251V2.08352C20.0002 0.935084 19.0651 0 17.9167 0ZM5.41555 1.66682H17.9167C18.0272 1.66682 18.1332 1.71072 18.2113 1.78887C18.2895 1.86701 18.3334 1.973 18.3334 2.08352V7.99989L15.7006 4.92794C15.5614 4.76804 15.3898 4.63963 15.1971 4.55125C15.0044 4.46287 14.795 4.41656 14.583 4.4154C14.3703 4.4165 14.1604 4.46414 13.9681 4.55499C13.7757 4.64584 13.6056 4.77769 13.4696 4.94128L10.3743 8.65661L9.36591 7.65069C9.09168 7.37689 8.72 7.2231 8.33248 7.2231C7.94496 7.2231 7.57329 7.37689 7.29906 7.65069L4.99885 9.95006V2.08352C4.99885 1.973 5.04275 1.86701 5.1209 1.78887C5.19905 1.71072 5.30504 1.66682 5.41555 1.66682Z" fill="#2237C2"/>
</svg>
