<svg width="24" height="24" viewBox="0 0 24 24" fill="none" xmlns="http://www.w3.org/2000/svg">
    <path d="M23.3553 10.4399L23.3536 10.4383L13.5626 0.64755C13.1452 0.229945 12.5903 0 12.0002 0C11.4099 0 10.8551 0.229805 10.4376 0.647363L0.651549 10.4331C0.648267 10.4364 0.644985 10.4398 0.641704 10.4432C-0.215352 11.3051 -0.213852 12.7036 0.645923 13.5634C1.03868 13.9564 1.5575 14.184 2.11218 14.2078C2.13468 14.21 2.15742 14.2111 2.1803 14.2111H2.57053V21.4165C2.57053 22.8424 3.73061 24.0024 5.15679 24.0024H8.98734C9.3756 24.0024 9.69053 23.6876 9.69053 23.2992V17.6502C9.69053 16.9996 10.2198 16.4704 10.8705 16.4704H13.1298C13.7805 16.4704 14.3097 16.9996 14.3097 17.6502V23.2992C14.3097 23.6876 14.6245 24.0024 15.0129 24.0024H18.8435C20.2697 24.0024 21.4297 22.8424 21.4297 21.4166V14.2111H21.7916C22.3816 14.2111 22.9365 13.9813 23.3542 13.5638C24.2149 12.7026 24.2152 11.3017 23.3553 10.4399Z" fill="#C22522"/>
</svg>
