<svg id="Layer_1" viewBox="0 0 100 100" xmlns="http://www.w3.org/2000/svg"><g><path d="m86.2 22.2c.1-.4-.1-.8-.3-1.1l-20-20c-.3-.3-.7-.4-1.1-.3-.1 0-.1 0-.2 0h-39.6c-6.2 0-11.2 5-11.2 11.2v76c0 6.2 5 11.2 11.2 11.2h50c6.2 0 11.2-5 11.2-11.2v-65.7zm-39.6 9.7c4.3 0 7.8 3.5 7.8 7.8s-3.5 7.8-7.8 7.8-7.8-3.5-7.8-7.8 3.5-7.8 7.8-7.8zm28.9 36.1c-.2.1-.3.1-.5.1-.5 0-1-.3-1.2-.8l-9.2-23.3-14.2 17.2c-.2.3-.5.4-.9.5-.3 0-.7-.1-.9-.3l-8.2-7.3-14.5 13.7c-.5.5-1.3.4-1.8-.1s-.4-1.3.1-1.8l15.4-14.5c.5-.4 1.2-.5 1.7 0l8 7.2 14.7-17.9c.3-.3.7-.5 1.2-.4.4.1.8.4 1 .8l10 25.3c.2.7-.1 1.4-.7 1.6zm-.5-47.2c-4.8 0-8.8-3.9-8.8-8.8v-7l15.8 15.8z"/></g></svg>