<svg width="24" height="28" viewBox="0 0 24 28" fill="none" xmlns="http://www.w3.org/2000/svg">
    <path d="M12.0002 0C7.20206 0 3.2002 3.86507 3.2002 8.8C3.2002 10.6774 3.76436 12.3516 4.84708 13.9203L11.3268 24.0313C11.6411 24.5228 12.3599 24.5218 12.6736 24.0313L19.1814 13.8859C20.2408 12.3883 20.8002 10.6297 20.8002 8.8C20.8002 3.94768 16.8525 0 12.0002 0ZM12.0002 12.8C9.7947 12.8 8.0002 11.0055 8.0002 8.8C8.0002 6.59451 9.7947 4.8 12.0002 4.8C14.2057 4.8 16.0002 6.59451 16.0002 8.8C16.0002 11.0055 14.2057 12.8 12.0002 12.8Z" fill="#C22522"/>
    <path d="M18.2541 18.3837L14.2258 24.6817C13.183 26.3074 10.8111 26.3021 9.77344 24.6832L5.73856 18.3854C2.18848 19.2062 0 20.7098 0 22.5067C0 25.6246 6.18283 27.3067 12 27.3067C17.8172 27.3067 24 25.6246 24 22.5067C24 20.7085 21.8085 19.2041 18.2541 18.3837Z" fill="#C22522"/>
</svg>
