<svg width="20" height="27" viewBox="0 0 20 27" fill="none" xmlns="http://www.w3.org/2000/svg">
    <path d="M17.5 10H16.6667V6.66667C16.6667 2.99 13.6767 0 10 0C6.32333 0 3.33333 2.99 3.33333 6.66667V10H2.5C1.83723 10.0009 1.20186 10.2646 0.733207 10.7332C0.264557 11.2019 0.000881931 11.8372 0 12.5V24.1667C0 25.5456 1.12222 26.6667 2.5 26.6667H17.5C18.8778 26.6667 20 25.5456 20 24.1667V12.5C20 11.1211 18.8778 10 17.5 10ZM5.55556 6.66667C5.55556 4.21556 7.54889 2.22222 10 2.22222C12.4511 2.22222 14.4444 4.21556 14.4444 6.66667V10H5.55556V6.66667ZM11.1111 18.58V21.1111C11.1111 21.4058 10.994 21.6884 10.7857 21.8968C10.5773 22.1052 10.2947 22.2222 10 22.2222C9.70532 22.2222 9.4227 22.1052 9.21433 21.8968C9.00595 21.6884 8.88889 21.4058 8.88889 21.1111V18.58C8.22778 18.1944 7.77778 17.4856 7.77778 16.6667C7.77778 15.4411 8.77444 14.4444 10 14.4444C11.2256 14.4444 12.2222 15.4411 12.2222 16.6667C12.2222 17.4856 11.7722 18.1944 11.1111 18.58Z" fill="#DC9291"/>
</svg>
