<svg width="22" height="24" viewBox="0 0 22 24" fill="none" xmlns="http://www.w3.org/2000/svg">
    <path d="M11 0C7.36076 0 4.4 2.8388 4.4 6.32812C4.4 9.81745 7.36076 12.6562 11 12.6562C14.6392 12.6562 17.6 9.81745 17.6 6.32812C17.6 2.8388 14.6392 0 11 0ZM19.2117 16.7904C17.4047 15.0313 15.0093 14.0625 12.4667 14.0625H9.53333C6.99072 14.0625 4.59526 15.0313 2.78833 16.7904C0.990244 18.5409 0 20.8515 0 23.2969C0 23.6852 0.328338 24 0.733333 24H21.2667C21.6717 24 22 23.6852 22 23.2969C22 20.8515 21.0098 18.5409 19.2117 16.7904Z" fill="#DC9291"/>
</svg>
