<svg width="24" height="24" viewBox="0 0 24 24" fill="none" xmlns="http://www.w3.org/2000/svg">
    <path d="M11.2149 18.4969C11.2149 18.2072 11.451 17.9711 11.7406 17.9711C12.0309 17.9711 12.2669 18.2072 12.2669 18.4969V23.4743C12.2669 23.7639 12.0309 24 11.7406 24C11.451 24 11.2149 23.7639 11.2149 23.4743V18.4969ZM19.9998 13.356H21.6987C21.0725 17.9025 17.4151 21.3712 12.8379 21.7558V20.0703C14.5949 19.8894 16.2598 19.1292 17.5535 17.9148C18.8439 16.702 19.7073 15.0918 19.9998 13.356ZM18.4968 12.7845C18.2071 12.7845 17.971 12.5484 17.971 12.2587C17.971 11.9685 18.2071 11.7324 18.4968 11.7324H23.4741C23.7638 11.7324 23.9999 11.9685 23.9999 12.2587C23.9999 12.5484 23.7638 12.7845 23.4741 12.7845H18.4968ZM11.9996 9.52222C12.5549 9.52222 13.007 9.9743 13.007 10.5296C13.007 11.085 12.5549 11.5376 11.9996 11.5376C11.4443 11.5376 10.9922 11.085 10.9922 10.5296C10.9922 9.97374 11.4443 9.52222 11.9996 9.52222Z" fill="#979797"/>
    <path d="M14.7175 10.6719C14.7175 12.3318 13.4925 13.8873 12.5978 15.0236C12.3734 15.3088 12.168 15.5695 11.9989 15.8078C11.8298 15.5689 11.625 15.3083 11.3995 15.0231C10.5054 13.8873 9.28027 12.3318 9.28027 10.6719C9.28027 9.17336 10.4998 7.95441 11.9983 7.95441C13.4969 7.95441 14.7175 9.17336 14.7175 10.6719ZM13.5778 10.529C13.5778 9.65892 12.8701 8.95066 11.9995 8.95066C11.1288 8.95066 10.4211 9.65892 10.4211 10.529C10.4211 11.3997 11.1288 12.1074 11.9995 12.1074C12.8701 12.1074 13.5778 11.3997 13.5778 10.529Z" fill="#979797"/>
    <path d="M19.4962 11.1614H18.4971C17.8921 11.1614 17.4004 11.6537 17.4004 12.2587C17.4004 12.8637 17.8921 13.3554 18.4971 13.3554H19.4208C18.8286 16.6127 16.1312 19.1304 12.8383 19.4954V18.4963C12.8383 17.8913 12.346 17.3996 11.741 17.3996C11.136 17.3996 10.6443 17.8913 10.6443 18.4963V19.42C7.38705 18.8284 4.8699 16.1304 4.50488 12.8375H5.50337C6.10838 12.8375 6.60009 12.3452 6.60009 11.7402C6.60009 11.1352 6.10838 10.6435 5.50337 10.6435H4.57967C5.17129 7.38626 7.86927 4.86855 11.1622 4.50354V5.50259C11.1622 6.1076 11.6545 6.59931 12.2595 6.59931C12.8645 6.59931 13.3562 6.1076 13.3562 5.50259V4.57889C16.6134 5.17106 19.1311 7.86848 19.4962 11.1614ZM13.0476 15.377C13.9936 14.1753 15.2896 12.5294 15.2896 10.6725C15.2896 8.85916 13.8139 7.38347 12 7.38347C10.1861 7.38347 8.71037 8.85916 8.71037 10.6725C8.71037 12.53 10.0063 14.1759 10.9524 15.377C11.2889 15.8045 11.5797 16.174 11.7527 16.4737C11.8035 16.5624 11.8978 16.6166 12 16.6166C12.1021 16.6166 12.1964 16.5624 12.2472 16.4737C12.4202 16.174 12.711 15.8039 13.0476 15.377Z" fill="#979797"/>
    <path d="M0.525755 12.2665C0.236088 12.2665 0 12.0304 0 11.7402C0 11.4505 0.236088 11.2144 0.525755 11.2144H5.50313C5.7928 11.2144 6.02888 11.4505 6.02888 11.7402C6.02888 12.0304 5.7928 12.2665 5.50313 12.2665H0.525755ZM10.6435 19.9999V21.6983C6.09642 21.0726 2.62822 17.4152 2.24367 12.838H3.92977C4.1106 14.595 4.87021 16.2599 6.0847 17.5536C7.2975 18.844 8.9077 19.7074 10.6435 19.9999ZM11.1614 2.24367V3.92977C9.40443 4.1106 7.73954 4.87021 6.4458 6.0847C5.15541 7.2975 4.29199 8.90826 3.99953 10.6435H2.30116C2.92682 6.09642 6.58422 2.62822 11.1614 2.24367ZM21.7558 11.1614H20.0702C19.8894 9.40443 19.1298 7.73954 17.9153 6.4458C16.7025 5.15542 15.0917 4.29199 13.3565 3.99954V2.3006C17.903 2.92682 21.3712 6.58422 21.7558 11.1614ZM11.7329 0.525755C11.7329 0.236088 11.969 0 12.2592 0C12.5489 0 12.785 0.236088 12.785 0.525755V5.50313C12.785 5.7928 12.5489 6.02888 12.2592 6.02888C11.969 6.02888 11.7329 5.7928 11.7329 5.50313V0.525755Z" fill="#979797"/>
</svg>
