<svg width="24" height="24" viewBox="0 0 24 24" fill="none" xmlns="http://www.w3.org/2000/svg">
    <path d="M23.1201 13.2801C22.1159 13.0224 21.1426 12.6565 20.2173 12.1887C19.9316 12.0458 19.6687 11.9087 19.4287 11.7773C18.9544 11.5144 18.5773 11.2801 18.3316 11.1201C18.3176 11.1103 18.3021 11.1026 18.2859 11.0973C18.1047 10.9917 17.898 10.938 17.6884 10.942C17.4787 10.946 17.2742 11.0076 17.0973 11.1201C15.6229 12.0843 14.0073 12.813 12.3087 13.2801C12.0586 13.3409 11.8361 13.4836 11.6766 13.6856C11.5171 13.8875 11.4299 14.1371 11.4287 14.3944V15.3715C11.4281 16.7827 11.7763 18.1722 12.4422 19.4164C13.1082 20.6605 14.0713 21.7208 15.2459 22.503L15.7773 22.8573L17.0801 23.7258C17.1834 23.7939 17.2974 23.8441 17.4173 23.8744H17.423C17.5167 23.9067 17.6153 23.9222 17.7144 23.9201C17.9402 23.9182 18.1606 23.8507 18.3487 23.7258L20.183 22.503C21.3576 21.7208 22.3207 20.6605 22.9866 19.4164C23.6526 18.1722 24.0007 16.7827 24.0001 15.3715V14.3944C23.999 14.1371 23.9117 13.8875 23.7522 13.6856C23.5927 13.4836 23.3702 13.3409 23.1201 13.2801ZM19.8344 16.4058L17.5487 18.6915C17.4404 18.7978 17.2947 18.8573 17.143 18.8573C16.9913 18.8573 16.8456 18.7978 16.7373 18.6915L15.5944 17.5487C15.4868 17.4411 15.4264 17.2951 15.4264 17.143C15.4264 16.9908 15.4868 16.8449 15.5944 16.7373C15.702 16.6297 15.848 16.5692 16.0001 16.5692C16.1523 16.5692 16.2983 16.6297 16.4059 16.7373L17.143 17.4801L19.023 15.5944C19.0763 15.5411 19.1395 15.4989 19.2091 15.47C19.2788 15.4412 19.3534 15.4263 19.4287 15.4263C19.5041 15.4263 19.5787 15.4412 19.6483 15.47C19.7179 15.4989 19.7811 15.5411 19.8344 15.5944C19.8877 15.6477 19.93 15.7109 19.9588 15.7805C19.9876 15.8502 20.0025 15.9248 20.0025 16.0001C20.0025 16.0755 19.9876 16.1501 19.9588 16.2197C19.93 16.2893 19.8877 16.3526 19.8344 16.4058Z" fill="#DC9291"/>
    <path d="M18.6171 5.8515L13.7314 0.857217C13.5561 0.679763 13.3582 0.526072 13.1429 0.400074V4.5715C13.1442 5.02574 13.3253 5.46099 13.6465 5.78219C13.9677 6.10338 14.4029 6.28443 14.8571 6.28579H18.9657C18.8626 6.13098 18.746 5.98565 18.6171 5.8515ZM19.3943 7.42865H14.8571C14.0994 7.42865 13.3727 7.12763 12.8368 6.59181C12.301 6.05599 12 5.32926 12 4.5715V0.0229312C11.898 0.00679974 11.7947 -0.000845459 11.6914 7.40514e-05H2.85714C2.09938 7.40514e-05 1.37266 0.301094 0.836838 0.836912C0.30102 1.37273 0 2.09946 0 2.85722V21.1429C0 21.9007 0.30102 22.6274 0.836838 23.1632C1.37266 23.6991 2.09938 24.0001 2.85714 24.0001H15.4343L14.6114 23.4515C13.28 22.5659 12.1883 21.3647 11.4336 19.9549C10.6788 18.5451 10.2845 16.9706 10.2857 15.3715V14.3944C10.2859 14.041 10.3681 13.6924 10.5257 13.3761C10.6834 13.0599 10.9122 12.7844 11.1943 12.5715H4C3.84845 12.5715 3.7031 12.5113 3.59594 12.4041C3.48878 12.297 3.42857 12.1516 3.42857 12.0001C3.42857 11.8485 3.48878 11.7032 3.59594 11.596C3.7031 11.4888 3.84845 11.4286 4 11.4286H14.1371C14.9463 11.0638 15.7275 10.6398 16.4743 10.1601C16.8093 9.94722 17.1936 9.82435 17.59 9.80333C17.9864 9.78231 18.3815 9.86385 18.7371 10.0401L18.7771 10.0572L18.9486 10.1601C19.0686 10.2401 19.2286 10.3372 19.4286 10.4572V7.8515C19.4287 7.70985 19.4173 7.56842 19.3943 7.42865ZM10.2857 18.8572C10.2857 19.0088 10.2255 19.1541 10.1183 19.2613C10.0112 19.3684 9.86584 19.4286 9.71429 19.4286H4C3.84845 19.4286 3.7031 19.3684 3.59594 19.2613C3.48878 19.1541 3.42857 19.0088 3.42857 18.8572C3.42857 18.7057 3.48878 18.5603 3.59594 18.4532C3.7031 18.346 3.84845 18.2858 4 18.2858H9.71429C9.86584 18.2858 10.0112 18.346 10.1183 18.4532C10.2255 18.5603 10.2857 18.7057 10.2857 18.8572ZM4 14.8572H8.57143C8.72298 14.8572 8.86833 14.9174 8.97549 15.0246C9.08265 15.1317 9.14286 15.2771 9.14286 15.4286C9.14286 15.5802 9.08265 15.7255 8.97549 15.8327C8.86833 15.9399 8.72298 16.0001 8.57143 16.0001H4C3.84845 16.0001 3.7031 15.9399 3.59594 15.8327C3.48878 15.7255 3.42857 15.5802 3.42857 15.4286C3.42857 15.2771 3.48878 15.1317 3.59594 15.0246C3.7031 14.9174 3.84845 14.8572 4 14.8572ZM4 4.5715H8.57143C8.72298 4.5715 8.86833 4.63171 8.97549 4.73887C9.08265 4.84603 9.14286 4.99138 9.14286 5.14293C9.14286 5.29448 9.08265 5.43983 8.97549 5.54699C8.86833 5.65416 8.72298 5.71436 8.57143 5.71436H4C3.84845 5.71436 3.7031 5.65416 3.59594 5.54699C3.48878 5.43983 3.42857 5.29448 3.42857 5.14293C3.42857 4.99138 3.48878 4.84603 3.59594 4.73887C3.7031 4.63171 3.84845 4.5715 4 4.5715ZM12 9.14293H4C3.84845 9.14293 3.7031 9.08273 3.59594 8.97556C3.48878 8.8684 3.42857 8.72305 3.42857 8.5715C3.42857 8.41995 3.48878 8.2746 3.59594 8.16744C3.7031 8.06028 3.84845 8.00007 4 8.00007H12C12.1516 8.00007 12.2969 8.06028 12.4041 8.16744C12.5112 8.2746 12.5714 8.41995 12.5714 8.5715C12.5714 8.72305 12.5112 8.8684 12.4041 8.97556C12.2969 9.08273 12.1516 9.14293 12 9.14293Z" fill="#DC9291"/>
</svg>
