<svg width="24" height="27" viewBox="0 0 24 27" fill="none" xmlns="http://www.w3.org/2000/svg">
    <path fill-rule="evenodd" clip-rule="evenodd" d="M0 1.33333C0 0.979711 0.140476 0.640573 0.390524 0.390524C0.640573 0.140476 0.979711 0 1.33333 0H15.0307C15.3843 0 15.7234 0.140476 15.9735 0.390524C16.2235 0.640573 16.364 0.979711 16.364 1.33333V25.3333C16.364 25.687 16.2235 26.0261 15.9735 26.2761C15.7234 26.5262 15.3843 26.6667 15.0307 26.6667H1.33333C0.979711 26.6667 0.640573 26.5262 0.390524 26.2761C0.140476 26.0261 0 25.687 0 25.3333V1.33333ZM11.4533 3.33333H4.91067C4.00667 3.33333 3.27467 4.08 3.27467 5C3.27467 5.92 4.00533 6.66667 4.90933 6.66667H11.4547C12.3587 6.66667 13.0907 5.92 13.0907 5C13.0907 4.08 12.356 3.33333 11.4533 3.33333ZM11.4533 11.6667H4.91067C4.00667 11.6667 3.27467 12.4133 3.27467 13.3333C3.27467 14.2533 4.00667 15 4.91067 15H11.456C12.36 15 13.092 14.2533 13.092 13.3333C13.092 12.4133 12.3587 11.6667 11.456 11.6667H11.4533ZM4.91067 20H11.456C12.36 20 13.092 20.7467 13.092 21.6667C13.092 22.5867 12.3587 23.3333 11.456 23.3333H4.90667C4.004 23.3333 3.272 22.5867 3.272 21.6667C3.272 20.7467 4.00667 20 4.91067 20Z" fill="#DC9291"/>
    <path d="M23.9998 4.25069C23.9998 3.89707 23.8594 3.55793 23.6093 3.30788C23.3593 3.05783 23.0201 2.91736 22.6665 2.91736H21.2425C20.8889 2.91736 20.5498 3.05783 20.2997 3.30788C20.0497 3.55793 19.9092 3.89707 19.9092 4.25069V20.924C19.909 21.1835 19.9845 21.4375 20.1265 21.6547L20.8385 22.7427C20.9598 22.9278 21.1253 23.0799 21.32 23.1851C21.5147 23.2903 21.7325 23.3454 21.9538 23.3454C22.1752 23.3454 22.393 23.2903 22.5877 23.1851C22.7824 23.0799 22.9479 22.9278 23.0692 22.7427L23.7812 21.6547C23.9237 21.4376 23.9997 21.1837 23.9998 20.924V4.25069Z" fill="#DC9291"/>
</svg>
