<svg clip-rule="evenodd" fill-rule="evenodd" height="512" stroke-linejoin="round" stroke-miterlimit="2" viewBox="0 0 24 24" width="512" xmlns="http://www.w3.org/2000/svg"><g id="Icon"><path d="m13.25 1.25h-7.25c-.729 0-1.429.29-1.945.805-.515.516-.805 1.216-.805 1.945v16c0 .729.29 1.429.805 1.945.516.515 1.216.805 1.945.805h12c1.519 0 2.75-1.231 2.75-2.75v-11.25h-4.75c-.729 0-1.429-.29-1.945-.805-.515-.516-.805-1.216-.805-1.945zm-4.978 10.932 1.25 5c.079.316.353.544.677.566.325.022.627-.167.747-.469l1.054-2.635s1.054 2.635 1.054 2.635c.12.302.422.491.747.469.324-.022.598-.25.677-.566l1.25-5c.1-.402-.145-.809-.546-.91-.402-.1-.809.145-.91.546l-.687 2.75s-.889-2.222-.889-2.222c-.114-.284-.389-.471-.696-.471s-.582.187-.696.471l-.889 2.222s-.687-2.75-.687-2.75c-.101-.401-.508-.646-.91-.546-.401.101-.646.508-.546.91zm6.478-10.489v4.307c0 .332.132.649.366.884.235.234.552.366.884.366h4.307c-.023-.025-.046-.049-.07-.073-1.018-1.018-4.396-4.396-5.414-5.414-.024-.024-.048-.047-.073-.07z"/></g></svg>