<?xml version="1.0" encoding="iso-8859-1"?>
<!-- Generator: Adobe Illustrator 19.0.0, SVG Export Plug-In . SVG Version: 6.00 Build 0)  -->
<svg version="1.1" id="Capa_1" xmlns="http://www.w3.org/2000/svg" xmlns:xlink="http://www.w3.org/1999/xlink" x="0px" y="0px"
	 viewBox="0 0 384 384" style="enable-background:new 0 0 384 384;" xml:space="preserve">
<g>
	<g>
		<path d="M64,0v80h224v144h-16V96H0v112h64v176h240v-80h80V0H64z M75.872,186.4H34.32v-10.08l25.248-47.136H36.032v-11.328h39.456
			v10.464l-25.632,46.752h26.016V186.4z M96,224H80v-16h16V224z M107.072,186.4H93.248v-68.544h13.824V186.4z M128,224h-16v-16h16
			V224z M160,224h-16v-16h16V224z M168.368,147.616c-1.056,2.624-2.528,4.768-4.416,6.416c-1.888,1.664-4.176,2.928-6.864,3.744
			c-2.688,0.816-5.664,1.248-8.944,1.248h-7.392v27.36h-13.808V117.84h24.192c3.52,0,6.464,0.608,8.88,1.792
			c2.416,1.184,4.336,2.736,5.808,4.656c1.472,1.92,2.528,4.112,3.168,6.576c0.624,2.448,0.96,4.976,0.96,7.536
			C169.952,141.92,169.424,144.992,168.368,147.616z M192,224h-16v-16h16V224z M224,224h-16v-16h16V224z M256,224h-16v-16h16V224z"
			/>
	</g>
</g>
<g>
	<g>
		<path d="M153.92,130.736c-1.472-1.776-3.936-2.688-7.392-2.688h-5.76v20.848h6.144c2.752,0,4.992-0.848,6.672-2.512
			c1.696-1.664,2.544-4.256,2.544-7.776C156.128,135.152,155.392,132.528,153.92,130.736z"/>
	</g>
</g>
<g>
	<g>
		<polygon points="320,320 320,384 384,320 		"/>
	</g>
</g>
<g>
</g>
<g>
</g>
<g>
</g>
<g>
</g>
<g>
</g>
<g>
</g>
<g>
</g>
<g>
</g>
<g>
</g>
<g>
</g>
<g>
</g>
<g>
</g>
<g>
</g>
<g>
</g>
<g>
</g>
</svg>
